PathFileType	4	(X/Y/Z)	/Users/itak/Documents/Research/Walk-IL/dataset/trc/00206_00008.trc
DataRate	CameraRate	NumFrames	NumMarkers	Units	OrigDataRate	OrigDataStartFrame	OrigNumFrames
100.000000	100.000000	4	53	mm	100.000000	72	582
Frame#	Time	RPSI			LPSI			L3			STRN			T10			C7			CLAV			RBAK			LBAK			LSHO			LUPA			LAEL			LAOL			LWTS			LWPS			LFRA			LIFD			LHPS			LHTS			RSHO			RUPA			RAEL			RAOL			RWTS			RWPS			RFRA			RIFD			RHTS			RHPS			RBHD			LFHD			RFHD			LBHD			LHIP			RHIP			RASI			LASI			LKNE			LTHI			LANK			LTIP			LTOE			LMT1			LMT5			LHEE			RKNE			RTHI			RANK			RTIP			RTOE			RMT1			RMT5			RHEE			
		X1	Y1	Z1	X2	Y2	Z2	X3	Y3	Z3	X4	Y4	Z4	X5	Y5	Z5	X6	Y6	Z6	X7	Y7	Z7	X8	Y8	Z8	X9	Y9	Z9	X10	Y10	Z10	X11	Y11	Z11	X12	Y12	Z12	X13	Y13	Z13	X14	Y14	Z14	X15	Y15	Z15	X16	Y16	Z16	X17	Y17	Z17	X18	Y18	Z18	X19	Y19	Z19	X20	Y20	Z20	X21	Y21	Z21	X22	Y22	Z22	X23	Y23	Z23	X24	Y24	Z24	X25	Y25	Z25	X26	Y26	Z26	X27	Y27	Z27	X28	Y28	Z28	X29	Y29	Z29	X30	Y30	Z30	X31	Y31	Z31	X32	Y32	Z32	X33	Y33	Z33	X34	Y34	Z34	X35	Y35	Z35	X36	Y36	Z36	X37	Y37	Z37	X38	Y38	Z38	X39	Y39	Z39	X40	Y40	Z40	X41	Y41	Z41	X42	Y42	Z42	X43	Y43	Z43	X44	Y44	Z44	X45	Y45	Z45	X46	Y46	Z46	X47	Y47	Z47	X48	Y48	Z48	X49	Y49	Z49	X50	Y50	Z50	X51	Y51	Z51	X52	Y52	Z52	X53	Y53	Z53	

73	0.72	-1539.69921875	1055.904052734375	-547.1620483398438	-1527.650634765625	1054.970581054688	-671.5042724609375	-1532.416015625	1091.692138671875	-606.9259643554688	-1277.030151367188	1298.289428710938	-588.799560546875	-1566.786010742188	1247.40234375	-618.760498046875	-1500.3486328125	1517.012939453125	-628.9375	-1302.194091796875	1411.6845703125	-601.9450073242188	-1579.338623046875	1343.787475585938	-523.5701293945312	-1495.765014648438	1489.589965820312	-729.4576416015625	-1410.59033203125	1474.9306640625	-798.9310302734375	-1433.174438476562	1340.528930664062	-872.330810546875	-1411.041137695312	1122.0458984375	-883.77197265625	-1467.579467773438	1107.378784179688	-817.403564453125	-1299.80810546875	894.4368286132812	-831.7063598632812	-1373.0390625	870.7440185546875	-882.857666015625	-1392.068359375	1011.964172363281	-893.08740234375	-1289.000854492188	710.0459594726562	-802.3692016601562	-1349.984985351562	802.0670776367188	-874.9451904296875	-1281.982421875	815.928955078125	-848.9080810546875	-1458.212768554688	1499.961181640625	-442.0829162597656	-1484.763549804688	1435.119873046875	-373.3587646484375	-1495.25244140625	1144.500854492188	-315.552490234375	-1493.767211914062	1136.33203125	-413.8973999023438	-1340.25634765625	927.2608642578125	-327.9422607421875	-1414.515869140625	904.9835815429688	-283.8309631347656	-1466.684936523438	1073.70751953125	-295.7626953125	-1311.294555664062	739.6107788085938	-348.6497192382812	-1307.070068359375	837.7587280273438	-317.9328002929688	-1380.124389648438	825.0540161132812	-283.322509765625	-1462.791381835938	1676.593994140625	-561.8443603515625	-1274.0625	1733.580444335938	-653.9387817382812	-1302.874877929688	1735.553344726562	-527.5909423828125	-1441.190551757812	1682.078857421875	-697.9487915039062	-1413.162841796875	991.149658203125	-778.3424682617188	-1396.24169921875	1014.796813964844	-405.8036499023438	-1308.005004882812	1041.573486328125	-456.6318359375	-1293.449096679688	1025.996459960938	-713.2705688476562	-1415.36376953125	493.4747924804688	-735.1098022460938	-1402.28955078125	635.0258178710938	-765.1622924804688	-1511.4072265625	41.23516464233398	-738.0823364257812	-1459.63330078125	273.6009826660156	-749.3638916015625	-1290.215087890625	38.71610260009766	-715.5736083984375	-1341.613525390625	38.93733215332031	-667.1644897460938	-1403.870361328125	33.45331954956055	-778.12451171875	-1560.790405273438	38.25092697143555	-668.1631469726562	-1417.37060546875	513.3084716796875	-428.715576171875	-1357.405029296875	779.7557983398438	-394.9500427246094	-1509.554931640625	36.68617630004883	-438.5513610839844	-1410.803344726562	397.6918640136719	-445.9418029785156	-1282.8876953125	39.49706268310547	-456.0381164550781	-1336.212890625	37.9332275390625	-504.0712585449219	-1399.546997070312	38.50228500366211	-394.5810852050781	-1554.14208984375	31.34031677246094	-509.2318725585938	
74	0.73	-1539.613647460938	1055.911254882812	-547.32861328125	-1527.546508789062	1055.001953125	-671.6762084960938	-1532.26171875	1091.716064453125	-607.0900268554688	-1276.884155273438	1298.2705078125	-588.950927734375	-1566.675903320312	1247.410278320312	-618.88330078125	-1500.189575195312	1517.030883789062	-629.0256958007812	-1302.061645507812	1411.666748046875	-602.0953369140625	-1579.165771484375	1343.807373046875	-523.7288208007812	-1495.60400390625	1489.605834960938	-729.643798828125	-1410.466552734375	1474.908569335938	-799.0670166015625	-1433.055908203125	1340.511474609375	-872.4620971679688	-1410.97509765625	1122.01806640625	-883.8982543945312	-1467.425170898438	1107.349487304688	-817.5198364257812	-1299.687255859375	894.4197998046875	-831.8616943359375	-1372.825073242188	870.7106323242188	-882.9838256835938	-1392.001586914062	1011.934692382812	-893.203369140625	-1288.69091796875	709.9990234375	-802.54052734375	-1349.86328125	802.0481567382812	-875.0739135742188	-1281.857055664062	815.9119873046875	-849.0723266601562	-1458.00927734375	1499.962646484375	-442.2454833984375	-1484.573608398438	1435.13916015625	-373.4976196289062	-1495.083984375	1144.528564453125	-315.6682739257812	-1493.6103515625	1136.340942382812	-414.0087890625	-1340.084838867188	927.2755126953125	-328.0467834472656	-1414.362548828125	905.007568359375	-283.9297180175781	-1466.514038085938	1073.719970703125	-295.8623962402344	-1311.154174804688	739.6127319335938	-348.7410278320312	-1306.956298828125	837.7945556640625	-318.0430297851562	-1379.992919921875	825.0768432617188	-283.4048461914062	-1462.615844726562	1676.60205078125	-562.0145874023438	-1273.838745117188	1733.590942382812	-654.1176147460938	-1302.652709960938	1735.555419921875	-527.7804565429688	-1440.996826171875	1682.07470703125	-698.1495361328125	-1413.027709960938	991.1602783203125	-778.5181274414062	-1396.10205078125	1014.814453125	-405.9342651367188	-1307.917602539062	1041.582885742188	-456.8053894042969	-1293.27197265625	1025.992553710938	-713.4357299804688	-1415.318359375	493.4745788574219	-735.216796875	-1402.352783203125	635.0433959960938	-765.3488159179688	-1511.420288085938	41.2538948059082	-738.1046752929688	-1459.604248046875	273.5855102539062	-749.4130249023438	-1290.210693359375	38.71514511108398	-715.5721435546875	-1341.61181640625	38.93913269042969	-667.1658935546875	-1403.87255859375	33.45188522338867	-778.1235961914062	-1560.783447265625	38.26143646240234	-668.16064453125	-1417.350341796875	513.3073120117188	-428.7442016601562	-1357.273681640625	779.7596435546875	-395.0752563476562	-1509.503540039062	36.66771697998047	-438.5496215820312	-1410.802490234375	397.6910705566406	-445.9445190429688	-1282.890502929688	39.50216674804688	-456.0377807617188	-1336.214599609375	37.9335823059082	-504.069091796875	-1399.550415039062	38.49092864990234	-394.57275390625	-1554.152465820312	31.34036445617676	-509.2202758789062	
75	0.74	-1539.527954101562	1055.916259765625	-547.5077514648438	-1527.4560546875	1055.037841796875	-671.8671875	-1532.097778320312	1091.739868164062	-607.2620849609375	-1276.7216796875	1298.254272460938	-589.1153564453125	-1566.559204101562	1247.419677734375	-619.0155639648438	-1500.023681640625	1517.041748046875	-629.1251220703125	-1301.913818359375	1411.64990234375	-602.2630615234375	-1578.983276367188	1343.825927734375	-523.8875732421875	-1495.44580078125	1489.624145507812	-729.8252563476562	-1410.351196289062	1474.88818359375	-799.1988525390625	-1432.927368164062	1340.498046875	-872.6034545898438	-1410.91162109375	1121.98828125	-884.0265502929688	-1467.27001953125	1107.321655273438	-817.6351928710938	-1299.542846679688	894.4059448242188	-832.0316162109375	-1372.613891601562	870.6749267578125	-883.1083984375	-1391.918090820312	1011.903869628906	-893.3212280273438	-1288.455688476562	709.9634399414062	-802.7232666015625	-1349.744873046875	802.0298461914062	-875.1989135742188	-1281.735595703125	815.8925170898438	-849.2194213867188	-1457.813110351562	1499.964965820312	-442.4102172851562	-1484.376831054688	1435.15185546875	-373.6350402832031	-1494.911865234375	1144.553344726562	-315.7890930175781	-1493.463500976562	1136.346313476562	-414.13134765625	-1339.909790039062	927.2894287109375	-328.1572875976562	-1414.207397460938	905.0262451171875	-284.0375366210938	-1466.345092773438	1073.73046875	-295.9669494628906	-1311.002685546875	739.6115112304688	-348.8406066894531	-1306.83837890625	837.8141479492188	-318.1643676757812	-1379.86181640625	825.0956420898438	-283.4964599609375	-1462.440795898438	1676.611083984375	-562.189453125	-1273.61962890625	1733.608764648438	-654.2996215820312	-1302.427124023438	1735.557250976562	-527.9840087890625	-1440.81396484375	1682.060913085938	-698.3554077148438	-1412.910278320312	991.1743774414062	-778.7061767578125	-1395.97705078125	1014.830871582031	-406.0802917480469	-1307.827026367188	1041.58154296875	-457.0064086914062	-1293.101440429688	1025.982421875	-713.6190795898438	-1415.272216796875	493.4712219238281	-735.3365478515625	-1402.374633789062	635.0512084960938	-765.5205688476562	-1511.4326171875	41.27138519287109	-738.1260375976562	-1459.57470703125	273.5715942382812	-749.4652709960938	-1290.207763671875	38.71485137939453	-715.5720825195312	-1341.612060546875	38.94187545776367	-667.1672973632812	-1403.8740234375	33.45017242431641	-778.123046875	-1560.776977539062	38.27240753173828	-668.15869140625	-1417.340209960938	513.3051147460938	-428.7686462402344	-1357.137573242188	779.7652587890625	-395.2047424316406	-1509.453857421875	36.64427185058594	-438.5414123535156	-1410.812866210938	397.689453125	-445.9360961914062	-1282.894165039062	39.50980758666992	-456.03662109375	-1336.219116210938	37.93540191650391	-504.0644836425781	-1399.555908203125	38.47751617431641	-394.5625	-1554.162963867188	31.33914566040039	-509.2059020996094	
76	0.75	-1539.437622070312	1055.921630859375	-547.6996459960938	-1527.378540039062	1055.079833984375	-672.0767211914062	-1531.934326171875	1091.765258789062	-607.443603515625	-1276.547729492188	1298.239990234375	-589.2941284179688	-1566.434204101562	1247.431396484375	-619.1590576171875	-1499.845458984375	1517.046630859375	-629.24267578125	-1301.753662109375	1411.633056640625	-602.4486694335938	-1578.793701171875	1343.84228515625	-524.0418701171875	-1495.293090820312	1489.643432617188	-729.9974975585938	-1410.243041992188	1474.873046875	-799.3313598632812	-1432.7890625	1340.488891601562	-872.7559814453125	-1410.84521484375	1121.958740234375	-884.1583862304688	-1467.118041992188	1107.297241210938	-817.7526245117188	-1299.376220703125	894.3976440429688	-832.210693359375	-1372.412353515625	870.6397705078125	-883.229736328125	-1391.8134765625	1011.873596191406	-893.4425048828125	-1288.26513671875	709.9373168945312	-802.8994140625	-1349.627197265625	802.012451171875	-875.3184204101562	-1281.614868164062	815.8727416992188	-849.3480834960938	-1457.625	1499.969482421875	-442.5762329101562	-1484.171752929688	1435.159057617188	-373.7720336914062	-1494.737915039062	1144.5751953125	-315.9151306152344	-1493.32666015625	1136.348754882812	-414.2647399902344	-1339.73095703125	927.3019409179688	-328.2745361328125	-1414.049072265625	905.0403442382812	-284.1553039550781	-1466.17529296875	1073.739501953125	-296.0780944824219	-1310.839233398438	739.607666015625	-348.9465942382812	-1306.715942382812	837.814453125	-318.2953796386719	-1379.722900390625	825.1097412109375	-283.6000671386719	-1462.267822265625	1676.6220703125	-562.3671875	-1273.409301757812	1733.630859375	-654.4829711914062	-1302.201416015625	1735.560180664062	-528.1986083984375	-1440.646362304688	1682.040649414062	-698.5592651367188	-1412.812744140625	991.1919555664062	-778.9068603515625	-1395.860717773438	1014.845764160156	-406.2423400878906	-1307.731323242188	1041.568237304688	-457.2323608398438	-1292.944580078125	1025.964599609375	-713.8198852539062	-1415.224365234375	493.4645080566406	-735.4684448242188	-1402.347045898438	635.0469970703125	-765.6793212890625	-1511.443237304688	41.2869987487793	-738.1448974609375	-1459.542846679688	273.557861328125	-749.5216674804688	-1290.206298828125	38.71512603759766	-715.5730590820312	-1341.613891601562	38.94596862792969	-667.1690673828125	-1403.874267578125	33.44848251342773	-778.1228637695312	-1560.77099609375	38.28198623657227	-668.1572265625	-1417.341918945312	513.302490234375	-428.791259765625	-1356.998413085938	779.7725219726562	-395.3412780761719	-1509.413940429688	36.61723327636719	-438.5249938964844	-1410.833984375	397.6882934570312	-445.9197998046875	-1282.899169921875	39.52014541625977	-456.0344848632812	-1336.2265625	37.93883895874023	-504.0575866699219	-1399.562622070312	38.4626579284668	-394.5511779785156	-1554.173706054688	31.33820533752441	-509.1885681152344	
